<svg xmlns="http://www.w3.org/2000/svg" width="256" height="256" viewBox="0 0 100 100"><rect width="100" height="100" rx="20" fill="#7d6ee7"></rect><path fill="#fff" d="M67.30 76.80L62.89 63.77L36.62 63.77Q35.94 65.73 35.15 68.03Q34.37 70.33 33.63 72.54Q32.90 74.74 32.21 76.66Q31.53 78.57 31.13 79.84L31.13 79.84Q29.76 80.43 27.90 80.43L27.90 80.43Q26.33 80.43 25.11 79.60Q23.88 78.76 23.88 76.90L23.88 76.90Q23.88 76.02 24.18 75.09Q24.47 74.16 24.86 73.08L24.86 73.08Q26.33 68.96 28.64 62.49Q30.94 56.03 33.63 48.73Q36.33 41.42 39.12 34.03Q41.91 26.63 44.27 20.75L44.27 20.75Q45.05 20.35 46.62 19.96Q48.19 19.57 49.85 19.57L49.85 19.57Q51.81 19.57 53.63 20.16Q55.44 20.75 55.93 22.12L55.93 22.12Q58.28 27.80 60.98 35.10Q63.67 42.40 66.41 50.05Q69.16 57.69 71.66 65.09Q74.16 72.49 76.12 78.47L76.12 78.47Q75.33 79.35 74.25 79.89Q73.18 80.43 71.81 80.43L71.81 80.43Q69.94 80.43 68.96 79.60Q67.98 78.76 67.30 76.80L67.30 76.80ZM50.15 26.23L49.75 26.23Q48.68 29.17 47.30 32.95Q45.93 36.72 44.46 40.84Q42.99 44.95 41.52 49.17Q40.05 53.38 38.78 57.20L38.78 57.20L60.83 57.20Q59.36 52.79 57.79 48.33Q56.22 43.87 54.80 39.76Q53.38 35.64 52.16 32.16Q50.93 28.68 50.15 26.23L50.15 26.23Z"></path></svg>